<?xml version="1.0" encoding="UTF-8" standalone="no"?>
<svg
   xmlns:dc="http://purl.org/dc/elements/1.1/"
   xmlns:cc="http://creativecommons.org/ns#"
   xmlns:rdf="http://www.w3.org/1999/02/22-rdf-syntax-ns#"
   xmlns:svg="http://www.w3.org/2000/svg"
   xmlns="http://www.w3.org/2000/svg"
   xmlns:sodipodi="http://sodipodi.sourceforge.net/DTD/sodipodi-0.dtd"
   xmlns:inkscape="http://www.inkscape.org/namespaces/inkscape"
   width="1199"
   height="1200"
   viewBox="0 0 1199 1200"
   version="1.1"
   id="svg12"
   sodipodi:docname="favicon.svg"
   inkscape:version="1.0.2 (e86c870879, 2021-01-15)">
  <metadata
     id="metadata18">
    <rdf:RDF>
      <cc:Work
         rdf:about="">
        <dc:format>image/svg+xml</dc:format>
        <dc:type
           rdf:resource="http://purl.org/dc/dcmitype/StillImage" />
        <dc:title></dc:title>
      </cc:Work>
    </rdf:RDF>
  </metadata>
  <defs
     id="defs16" />
  <sodipodi:namedview
     pagecolor="#ffffff"
     bordercolor="#666666"
     borderopacity="1"
     objecttolerance="10"
     gridtolerance="10"
     guidetolerance="10"
     inkscape:pageopacity="0"
     inkscape:pageshadow="2"
     inkscape:window-width="1813"
     inkscape:window-height="1247"
     id="namedview14"
     showgrid="false"
     inkscape:zoom="0.59583333"
     inkscape:cx="238.19301"
     inkscape:cy="547.54498"
     inkscape:window-x="269"
     inkscape:window-y="337"
     inkscape:window-maximized="0"
     inkscape:current-layer="svg12"
     lock-margins="false"
     inkscape:pagecheckerboard="true"
     showborder="true"
     viewbox-height="591"
     scale-x="1.3"
     viewbox-width="591" />
  <rect
     width="100.0834%"
     height="100%"
     fill="#FFFFFF"
     rx="60.050037"
     ry="59.999996"
     id="rect2"
     style="fill:#ffffff;stroke:none;stroke-width:1.00046;stroke-miterlimit:4;stroke-dasharray:none;stroke-opacity:1"
     x="0"
     y="0" />
  <g
     transform="matrix(1.0111831,0,0,1.0111831,-45.041646,7.3473332)"
     style="fill:#000000"
     id="g10">
    <svg
       fill="#000000"
       version="1.1"
       x="0px"
       y="0px"
       viewBox="0 0 100 100"
       xml:space="preserve"
       id="svg8"
       width="100%"
       height="100%"><style
         type="text/css"
         id="style4">
	.st0{fill-rule:evenodd;clip-rule:evenodd;}
</style><path
         class="st0"
         d="m 59.9,6.2 c -0.1,2.5 -0.3,5 -0.4,7.5 -0.4,8.2 -0.8,16.4 -1.1,24.6 -0.1,3 -1.7,4.9 -4.2,6 -3,1.4 -6.1,1.4 -8.9,-0.5 -2.7,-1.8 -3.2,-5 -1.3,-7.6 2.2,-3 6.6,-4.2 10.3,-2.8 0.3,0.1 0.7,0.3 1.1,0.4 0.4,-6.9 0.7,-13.7 1.1,-20.8 -8.1,0.8 -16,1.6 -24,2.4 -0.1,1.6 -0.2,3 -0.2,4.5 -0.3,7 -0.6,13.9 -0.8,20.9 -0.1,3.7 -2.8,6.5 -6.7,7.1 -1.2,0.2 -2.5,0.2 -3.6,-0.1 -2.6,-0.6 -4.6,-2.1 -5.3,-4.8 0,-0.5 0,-1.1 0,-1.6 0.7,-2.6 2.5,-4.2 4.9,-5.1 2.4,-0.9 4.9,-0.9 7.4,0.3 C 28.6,26.8 29,17.1 29.3,7.4 31.6,7.2 33.8,7 36,6.9 40.8,6.5 45.6,6.2 50.4,5.8 53.6,5.5 56.7,5.3 59.9,5 c 0,0.4 0,0.8 0,1.2 z m -3.5,50.5 c -6,-2.9 -12.4,-3.5 -18.9,-3.9 -1.7,-0.1 -2.1,0.5 -2.1,2.1 0.1,10.1 0,20.2 0,30.3 0,4.2 0,4.2 4.3,4.4 6.8,0.4 13.5,1.4 19.4,5.3 0.4,0.2 1.2,0 1.8,-0.2 2.5,-1.1 4.9,-2.6 7.5,-3.2 4.6,-1 9.3,-1.4 14,-2 1,-0.1 1.8,-0.1 1.8,-1.5 0,-11.3 0,-22.6 0,-33.8 0,-1.2 -0.6,-1.5 -1.6,-1.4 -2,0.2 -4,0.2 -6,0.4 -5.8,0.7 -11.6,2 -16.6,5.5 -1.3,-0.7 -2.4,-1.4 -3.6,-2 z m -0.6,5.9 c 0.4,0.2 0.9,0.9 0.9,1.4 0.1,7.5 0,15.1 0,22.6 0,0.1 -0.1,0.2 0,0 -4.9,-1.2 -9.8,-2.4 -14.8,-3.7 0,-7.6 0,-15.5 0,-23.6 5,0.3 9.6,1.3 13.9,3.3 z m 22.1,3.8 c 0,5.1 0,10.2 0,15.3 0,0.8 0,1.5 -1.2,1.7 -4.5,0.9 -9.1,1.9 -13.7,2.9 0,-0.1 -0.1,-0.7 -0.1,-1.2 0,-6.9 0,-13.7 0,-20.6 0,-1.3 0.4,-1.9 1.6,-2.4 4.2,-1.7 8.5,-2.7 13.4,-3 0,2.7 0,5 0,7.3 z"
         id="path6" /></svg>
  </g>
</svg>
